<mxfile host="65bd71144e">
    <diagram name="Page-1" id="nQ3Bp0haaYBXYoLkhWMa">
        <mxGraphModel dx="169" dy="137" grid="1" gridSize="10" guides="1" tooltips="1" connect="1" arrows="1" fold="1" page="1" pageScale="1" pageWidth="827" pageHeight="1169" math="0" shadow="0">
            <root>
                <mxCell id="0"/>
                <mxCell id="1" parent="0"/>
                <mxCell id="ziqzP9hSNCvYDxLCFBq7-26" style="edgeStyle=orthogonalEdgeStyle;rounded=0;orthogonalLoop=1;jettySize=auto;html=1;entryX=0;entryY=0.5;entryDx=0;entryDy=0;" parent="1" source="ziqzP9hSNCvYDxLCFBq7-27" target="ziqzP9hSNCvYDxLCFBq7-49" edge="1">
                    <mxGeometry relative="1" as="geometry"/>
                </mxCell>
                <mxCell id="ziqzP9hSNCvYDxLCFBq7-27" value="Utilisateur" style="shape=umlActor;verticalLabelPosition=bottom;verticalAlign=top;html=1;outlineConnect=0;" parent="1" vertex="1">
                    <mxGeometry x="20" y="165" width="30" height="60" as="geometry"/>
                </mxCell>
                <mxCell id="ziqzP9hSNCvYDxLCFBq7-28" value="Accèder aux documents" style="ellipse;whiteSpace=wrap;html=1;verticalAlign=top;" parent="1" vertex="1">
                    <mxGeometry x="319" y="115" width="165" height="30" as="geometry"/>
                </mxCell>
                <mxCell id="ziqzP9hSNCvYDxLCFBq7-29" value="Extends" style="endArrow=block;endSize=16;endFill=0;html=1;rounded=0;entryX=1;entryY=0.5;entryDx=0;entryDy=0;exitX=0;exitY=0.5;exitDx=0;exitDy=0;strokeColor=default;edgeStyle=orthogonalEdgeStyle;fontSize=7;" parent="1" source="ziqzP9hSNCvYDxLCFBq7-30" target="ziqzP9hSNCvYDxLCFBq7-28" edge="1">
                    <mxGeometry x="-0.8" width="160" relative="1" as="geometry">
                        <mxPoint x="409" y="70" as="sourcePoint"/>
                        <mxPoint x="579" y="150" as="targetPoint"/>
                        <mxPoint as="offset"/>
                    </mxGeometry>
                </mxCell>
                <mxCell id="ziqzP9hSNCvYDxLCFBq7-30" value="&lt;div&gt;Afficher details&lt;/div&gt;" style="ellipse;whiteSpace=wrap;html=1;" parent="1" vertex="1">
                    <mxGeometry x="579" y="20" width="160" height="30" as="geometry"/>
                </mxCell>
                <mxCell id="ziqzP9hSNCvYDxLCFBq7-31" value="Extends" style="endArrow=block;endSize=16;endFill=0;html=1;rounded=0;exitX=0;exitY=0.5;exitDx=0;exitDy=0;entryX=1;entryY=0.5;entryDx=0;entryDy=0;strokeColor=default;edgeStyle=orthogonalEdgeStyle;fontSize=7;" parent="1" source="ziqzP9hSNCvYDxLCFBq7-32" target="ziqzP9hSNCvYDxLCFBq7-37" edge="1">
                    <mxGeometry x="-0.6923" width="160" relative="1" as="geometry">
                        <mxPoint x="580" y="160" as="sourcePoint"/>
                        <mxPoint x="720" y="250" as="targetPoint"/>
                        <mxPoint as="offset"/>
                        <Array as="points">
                            <mxPoint x="780" y="175"/>
                            <mxPoint x="780" y="130"/>
                        </Array>
                    </mxGeometry>
                </mxCell>
                <mxCell id="ziqzP9hSNCvYDxLCFBq7-32" value="&lt;div&gt;Ajout de fichiers&amp;nbsp;&lt;span style=&quot;background-color: initial;&quot;&gt;à un document&lt;/span&gt;&lt;/div&gt;" style="ellipse;whiteSpace=wrap;html=1;" parent="1" vertex="1">
                    <mxGeometry x="870" y="150" width="200" height="50" as="geometry"/>
                </mxCell>
                <mxCell id="ziqzP9hSNCvYDxLCFBq7-33" value="Recherche de documents" style="ellipse;whiteSpace=wrap;html=1;" parent="1" vertex="1">
                    <mxGeometry x="319" y="410" width="200" height="50" as="geometry"/>
                </mxCell>
                <mxCell id="ziqzP9hSNCvYDxLCFBq7-34" value="Aﬀicher documents favoris" style="ellipse;whiteSpace=wrap;html=1;" parent="1" vertex="1">
                    <mxGeometry x="319" y="480" width="200" height="50" as="geometry"/>
                </mxCell>
                <mxCell id="ziqzP9hSNCvYDxLCFBq7-35" value="Terminaison&amp;nbsp;d’une tâche dans&amp;nbsp;&lt;span style=&quot;border-color: var(--border-color); background-color: initial;&quot;&gt;un document&lt;/span&gt;" style="ellipse;whiteSpace=wrap;html=1;" parent="1" vertex="1">
                    <mxGeometry x="870" y="410" width="200" height="50" as="geometry"/>
                </mxCell>
                <mxCell id="ziqzP9hSNCvYDxLCFBq7-36" value="Transfert d’une tâche dans&amp;nbsp;&lt;span style=&quot;border-color: var(--border-color); background-color: initial;&quot;&gt;un document&lt;/span&gt;" style="ellipse;whiteSpace=wrap;html=1;" parent="1" vertex="1">
                    <mxGeometry x="870" y="340" width="200" height="50" as="geometry"/>
                </mxCell>
                <mxCell id="ziqzP9hSNCvYDxLCFBq7-37" value="Gérer fichiers" style="ellipse;whiteSpace=wrap;html=1;" parent="1" vertex="1">
                    <mxGeometry x="579" y="115" width="80" height="30" as="geometry"/>
                </mxCell>
                <mxCell id="ziqzP9hSNCvYDxLCFBq7-38" value="Gérer les tâches" style="ellipse;whiteSpace=wrap;html=1;" parent="1" vertex="1">
                    <mxGeometry x="579" y="220" width="110" height="30" as="geometry"/>
                </mxCell>
                <mxCell id="ziqzP9hSNCvYDxLCFBq7-39" value="&lt;div&gt;Afficher les taches d'un document&lt;/div&gt;" style="ellipse;whiteSpace=wrap;html=1;" parent="1" vertex="1">
                    <mxGeometry x="870" y="270" width="200" height="50" as="geometry"/>
                </mxCell>
                <mxCell id="ziqzP9hSNCvYDxLCFBq7-40" value="Extends" style="endArrow=block;endSize=16;endFill=0;html=1;rounded=0;exitX=0;exitY=0.5;exitDx=0;exitDy=0;entryX=1;entryY=0.5;entryDx=0;entryDy=0;strokeColor=default;edgeStyle=orthogonalEdgeStyle;fontSize=7;" parent="1" source="ziqzP9hSNCvYDxLCFBq7-35" target="ziqzP9hSNCvYDxLCFBq7-38" edge="1">
                    <mxGeometry x="-0.8667" width="160" relative="1" as="geometry">
                        <mxPoint x="764" y="185" as="sourcePoint"/>
                        <mxPoint x="678" y="171" as="targetPoint"/>
                        <mxPoint as="offset"/>
                    </mxGeometry>
                </mxCell>
                <mxCell id="ziqzP9hSNCvYDxLCFBq7-41" value="Extends" style="endArrow=block;endSize=16;endFill=0;html=1;rounded=0;exitX=0;exitY=0.5;exitDx=0;exitDy=0;entryX=1;entryY=0.5;entryDx=0;entryDy=0;strokeColor=default;edgeStyle=orthogonalEdgeStyle;fontSize=7;" parent="1" source="ziqzP9hSNCvYDxLCFBq7-36" target="ziqzP9hSNCvYDxLCFBq7-38" edge="1">
                    <mxGeometry x="-0.8261" width="160" relative="1" as="geometry">
                        <mxPoint x="774" y="195" as="sourcePoint"/>
                        <mxPoint x="688" y="181" as="targetPoint"/>
                        <mxPoint as="offset"/>
                    </mxGeometry>
                </mxCell>
                <mxCell id="ziqzP9hSNCvYDxLCFBq7-42" value="Extends" style="endArrow=block;endSize=16;endFill=0;html=1;rounded=0;exitX=0;exitY=0.5;exitDx=0;exitDy=0;entryX=1;entryY=0.5;entryDx=0;entryDy=0;strokeColor=default;edgeStyle=orthogonalEdgeStyle;fontSize=7;" parent="1" source="ziqzP9hSNCvYDxLCFBq7-39" target="ziqzP9hSNCvYDxLCFBq7-38" edge="1">
                    <mxGeometry x="-0.75" width="160" relative="1" as="geometry">
                        <mxPoint x="784" y="205" as="sourcePoint"/>
                        <mxPoint x="698" y="191" as="targetPoint"/>
                        <mxPoint as="offset"/>
                    </mxGeometry>
                </mxCell>
                <mxCell id="ziqzP9hSNCvYDxLCFBq7-43" value="Extends" style="endArrow=block;endSize=16;endFill=0;html=1;rounded=0;entryX=1;entryY=0.5;entryDx=0;entryDy=0;exitX=0;exitY=0.5;exitDx=0;exitDy=0;strokeColor=default;edgeStyle=orthogonalEdgeStyle;fontSize=7;" parent="1" source="ziqzP9hSNCvYDxLCFBq7-37" target="ziqzP9hSNCvYDxLCFBq7-28" edge="1">
                    <mxGeometry x="-0.6" width="160" relative="1" as="geometry">
                        <mxPoint x="413" y="15" as="sourcePoint"/>
                        <mxPoint x="354" y="130" as="targetPoint"/>
                        <mxPoint as="offset"/>
                    </mxGeometry>
                </mxCell>
                <mxCell id="ziqzP9hSNCvYDxLCFBq7-44" value="Extends" style="endArrow=block;endSize=16;endFill=0;html=1;rounded=0;entryX=1;entryY=0.5;entryDx=0;entryDy=0;exitX=0;exitY=0.5;exitDx=0;exitDy=0;strokeColor=default;edgeStyle=orthogonalEdgeStyle;fontSize=7;" parent="1" source="ziqzP9hSNCvYDxLCFBq7-38" target="ziqzP9hSNCvYDxLCFBq7-28" edge="1">
                    <mxGeometry x="-0.8341" width="160" relative="1" as="geometry">
                        <mxPoint x="444" y="125" as="sourcePoint"/>
                        <mxPoint x="354" y="130" as="targetPoint"/>
                        <mxPoint as="offset"/>
                    </mxGeometry>
                </mxCell>
                <mxCell id="ziqzP9hSNCvYDxLCFBq7-45" value="Extends" style="endArrow=block;endSize=16;endFill=0;html=1;rounded=0;entryX=1;entryY=0.5;entryDx=0;entryDy=0;exitX=0;exitY=0.5;exitDx=0;exitDy=0;strokeColor=default;edgeStyle=orthogonalEdgeStyle;fontSize=7;" parent="1" source="ziqzP9hSNCvYDxLCFBq7-33" target="ziqzP9hSNCvYDxLCFBq7-49" edge="1">
                    <mxGeometry x="-0.4865" width="160" relative="1" as="geometry">
                        <mxPoint x="469" y="275" as="sourcePoint"/>
                        <mxPoint x="385" y="130" as="targetPoint"/>
                        <mxPoint as="offset"/>
                    </mxGeometry>
                </mxCell>
                <mxCell id="ziqzP9hSNCvYDxLCFBq7-46" value="Extends" style="endArrow=block;endSize=16;endFill=0;html=1;rounded=0;exitX=0;exitY=0.5;exitDx=0;exitDy=0;edgeStyle=orthogonalEdgeStyle;entryX=1;entryY=0.5;entryDx=0;entryDy=0;jumpSize=3;fontSize=7;" parent="1" source="ziqzP9hSNCvYDxLCFBq7-34" target="ziqzP9hSNCvYDxLCFBq7-49" edge="1">
                    <mxGeometry x="-0.7714" width="160" relative="1" as="geometry">
                        <mxPoint x="469" y="405" as="sourcePoint"/>
                        <mxPoint x="351" y="131" as="targetPoint"/>
                        <mxPoint as="offset"/>
                    </mxGeometry>
                </mxCell>
                <mxCell id="ziqzP9hSNCvYDxLCFBq7-47" value="&lt;div&gt;Affichier les fichiers&lt;/div&gt;" style="ellipse;whiteSpace=wrap;html=1;" parent="1" vertex="1">
                    <mxGeometry x="870" y="70" width="200" height="50" as="geometry"/>
                </mxCell>
                <mxCell id="ziqzP9hSNCvYDxLCFBq7-48" value="Extends" style="endArrow=block;endSize=16;endFill=0;html=1;rounded=0;exitX=0;exitY=0.5;exitDx=0;exitDy=0;entryX=1;entryY=0.5;entryDx=0;entryDy=0;strokeColor=default;edgeStyle=orthogonalEdgeStyle;fontSize=7;" parent="1" source="ziqzP9hSNCvYDxLCFBq7-47" target="ziqzP9hSNCvYDxLCFBq7-37" edge="1">
                    <mxGeometry x="-0.8072" y="-3" width="160" relative="1" as="geometry">
                        <mxPoint x="818" y="220" as="sourcePoint"/>
                        <mxPoint x="669" y="145" as="targetPoint"/>
                        <Array as="points">
                            <mxPoint x="780" y="95"/>
                            <mxPoint x="780" y="130"/>
                        </Array>
                        <mxPoint as="offset"/>
                    </mxGeometry>
                </mxCell>
                <mxCell id="ziqzP9hSNCvYDxLCFBq7-49" value="Gérer documents" style="ellipse;whiteSpace=wrap;html=1;verticalAlign=top;" parent="1" vertex="1">
                    <mxGeometry x="80" y="180" width="165" height="30" as="geometry"/>
                </mxCell>
                <mxCell id="ziqzP9hSNCvYDxLCFBq7-50" value="Extends" style="endArrow=block;endSize=16;endFill=0;html=1;rounded=0;exitX=0;exitY=0.5;exitDx=0;exitDy=0;edgeStyle=orthogonalEdgeStyle;entryX=1;entryY=0.5;entryDx=0;entryDy=0;jumpSize=3;fontSize=7;" parent="1" source="ziqzP9hSNCvYDxLCFBq7-28" target="ziqzP9hSNCvYDxLCFBq7-49" edge="1">
                    <mxGeometry x="-0.7647" width="160" relative="1" as="geometry">
                        <mxPoint x="360" y="345" as="sourcePoint"/>
                        <mxPoint x="295" y="205" as="targetPoint"/>
                        <mxPoint as="offset"/>
                    </mxGeometry>
                </mxCell>
                <mxCell id="3" value="Extends" style="endArrow=block;endSize=16;endFill=0;html=1;rounded=0;entryX=1;entryY=0.5;entryDx=0;entryDy=0;strokeColor=default;edgeStyle=orthogonalEdgeStyle;fontSize=7;exitX=0;exitY=0.5;exitDx=0;exitDy=0;" edge="1" parent="1" source="4" target="ziqzP9hSNCvYDxLCFBq7-28">
                    <mxGeometry x="-0.8341" width="160" relative="1" as="geometry">
                        <mxPoint x="580" y="290" as="sourcePoint"/>
                        <mxPoint x="494" y="140" as="targetPoint"/>
                        <mxPoint as="offset"/>
                    </mxGeometry>
                </mxCell>
                <mxCell id="4" value="Télécharger un document" style="ellipse;whiteSpace=wrap;html=1;" vertex="1" parent="1">
                    <mxGeometry x="579" y="280" width="131" height="40" as="geometry"/>
                </mxCell>
                <mxCell id="6" value="Extends" style="endArrow=block;endSize=16;endFill=0;html=1;rounded=0;entryX=1;entryY=0.5;entryDx=0;entryDy=0;strokeColor=default;edgeStyle=orthogonalEdgeStyle;fontSize=7;exitX=0;exitY=0.5;exitDx=0;exitDy=0;" edge="1" parent="1" source="7" target="ziqzP9hSNCvYDxLCFBq7-33">
                    <mxGeometry x="-0.6465" width="160" relative="1" as="geometry">
                        <mxPoint x="610" y="435" as="sourcePoint"/>
                        <mxPoint x="611.5" y="390" as="targetPoint"/>
                        <mxPoint as="offset"/>
                        <Array as="points">
                            <mxPoint x="550" y="483"/>
                            <mxPoint x="550" y="435"/>
                        </Array>
                    </mxGeometry>
                </mxCell>
                <mxCell id="7" value="A l'aide de code QR" style="ellipse;whiteSpace=wrap;html=1;" vertex="1" parent="1">
                    <mxGeometry x="600" y="460" width="141" height="45" as="geometry"/>
                </mxCell>
                <mxCell id="8" value="Simple" style="ellipse;whiteSpace=wrap;html=1;" vertex="1" parent="1">
                    <mxGeometry x="600" y="390" width="141" height="45" as="geometry"/>
                </mxCell>
                <mxCell id="9" value="Extends" style="endArrow=block;endSize=16;endFill=0;html=1;rounded=0;entryX=1;entryY=0.5;entryDx=0;entryDy=0;strokeColor=default;edgeStyle=orthogonalEdgeStyle;fontSize=7;exitX=0;exitY=0.5;exitDx=0;exitDy=0;" edge="1" parent="1" source="8" target="ziqzP9hSNCvYDxLCFBq7-33">
                    <mxGeometry x="-0.6465" width="160" relative="1" as="geometry">
                        <mxPoint x="589" y="492.5" as="sourcePoint"/>
                        <mxPoint x="529" y="445" as="targetPoint"/>
                        <mxPoint as="offset"/>
                        <Array as="points">
                            <mxPoint x="550" y="413"/>
                            <mxPoint x="550" y="435"/>
                        </Array>
                    </mxGeometry>
                </mxCell>
                <mxCell id="14" value="Extends" style="endArrow=block;endSize=16;endFill=0;html=1;rounded=0;exitX=0;exitY=0.5;exitDx=0;exitDy=0;strokeColor=default;edgeStyle=orthogonalEdgeStyle;fontSize=7;entryX=1;entryY=0.5;entryDx=0;entryDy=0;startArrow=none;" edge="1" parent="1" source="15" target="ziqzP9hSNCvYDxLCFBq7-32">
                    <mxGeometry x="-0.6923" width="160" relative="1" as="geometry">
                        <mxPoint x="1311" y="224.98" as="sourcePoint"/>
                        <mxPoint x="1080" y="170" as="targetPoint"/>
                        <mxPoint as="offset"/>
                        <Array as="points">
                            <mxPoint x="1110" y="225"/>
                            <mxPoint x="1110" y="175"/>
                        </Array>
                    </mxGeometry>
                </mxCell>
                <mxCell id="15" value="&lt;div&gt;Scanner un fichier&lt;/div&gt;" style="ellipse;whiteSpace=wrap;html=1;" vertex="1" parent="1">
                    <mxGeometry x="1160" y="200" width="200" height="50" as="geometry"/>
                </mxCell>
                <mxCell id="17" value="&lt;div&gt;Scanner un fichier&lt;/div&gt;" style="ellipse;whiteSpace=wrap;html=1;" vertex="1" parent="1">
                    <mxGeometry x="1160" y="115" width="200" height="50" as="geometry"/>
                </mxCell>
                <mxCell id="18" value="Extends" style="endArrow=block;endSize=16;endFill=0;html=1;rounded=0;exitX=0;exitY=0.5;exitDx=0;exitDy=0;strokeColor=default;edgeStyle=orthogonalEdgeStyle;fontSize=7;entryX=1;entryY=0.5;entryDx=0;entryDy=0;startArrow=none;" edge="1" parent="1" source="17" target="ziqzP9hSNCvYDxLCFBq7-32">
                    <mxGeometry x="-0.6923" width="160" relative="1" as="geometry">
                        <mxPoint x="1170" y="235" as="sourcePoint"/>
                        <mxPoint x="1080" y="185" as="targetPoint"/>
                        <mxPoint as="offset"/>
                        <Array as="points">
                            <mxPoint x="1110" y="140"/>
                            <mxPoint x="1110" y="175"/>
                        </Array>
                    </mxGeometry>
                </mxCell>
            </root>
        </mxGraphModel>
    </diagram>
</mxfile>